<svg width="136" height="40" viewBox="0 0 136 40" fill="none" xmlns="http://www.w3.org/2000/svg">
<path d="M35.8096 0.481934L39.4976 0.481934V10.8434L35.8096 10.8434V0.481934Z" fill="black"/>
<path d="M21.2957 14.9395L24.9837 14.9395L24.9837 25.3009H21.2957L21.2957 14.9395Z" fill="black"/>
<path d="M7.01944 29.6387H10.7075L10.7075 40.0001H7.01944L7.01944 29.6387Z" fill="black"/>
<path d="M29.2662 0.481934L32.8353 0.481934V10.8434L29.2662 10.8434L29.2662 0.481934Z" fill="black"/>
<path d="M14.7524 14.9395L18.3214 14.9395L18.3214 25.3009H14.7524L14.7524 14.9395Z" fill="black"/>
<path d="M0.476084 29.6387H4.04514L4.04514 40.0001H0.476084L0.476084 29.6387Z" fill="black"/>
<path fill-rule="evenodd" clip-rule="evenodd" d="M34.4552 25.6898C37.5178 25.6898 40.0005 23.1755 40.0005 20.0739C40.0005 16.9723 37.5178 14.458 34.4552 14.458C31.3926 14.458 28.9098 16.9723 28.9098 20.0739C28.9098 23.1755 31.3926 25.6898 34.4552 25.6898ZM34.4554 22.4993C35.7779 22.4993 36.85 21.4136 36.85 20.0742C36.85 18.7349 35.7779 17.6492 34.4554 17.6492C33.133 17.6492 32.0609 18.7349 32.0609 20.0742C32.0609 21.4136 33.133 22.4993 34.4554 22.4993Z" fill="black"/>
<path fill-rule="evenodd" clip-rule="evenodd" d="M5.54535 11.2318C8.60796 11.2318 11.0907 8.71747 11.0907 5.6159C11.0907 2.51432 8.60796 0 5.54535 0C2.48274 0 0 2.51432 0 5.6159C0 8.71747 2.48274 11.2318 5.54535 11.2318ZM5.54671 8.04128C6.8692 8.04128 7.94129 6.95555 7.94129 5.61624C7.94129 4.27692 6.8692 3.19119 5.54671 3.19119C4.22422 3.19119 3.15213 4.27692 3.15213 5.61624C3.15213 6.95555 4.22422 8.04128 5.54671 8.04128Z" fill="black"/>
<path d="M29.2665 33.3736V29.6387H39.4978V33.3736H29.2665Z" fill="black"/>
<path d="M0.47525 18.6744L0.47525 14.9395L10.7065 14.9395V18.6744H0.47525Z" fill="black"/>
<path d="M29.2665 40.0002V36.3857H39.4978V40.0002H29.2665Z" fill="black"/>
<path d="M0.47525 25.3005L0.47525 21.686H10.7065V25.3005H0.47525Z" fill="black"/>
<path d="M52.976 14.16H55.376L49.776 26H47.392L49.568 21.296H47.504L44.144 14.16H46.688L49.824 21.104H49.856L52.976 14.16ZM58.77 24.288H65.01V26H56.562V14.16H64.834V15.872H58.77V19.072H64.274V20.784H58.77V24.288ZM74.6646 26L73.8486 23.136H68.7926L67.9766 26H65.7686L69.4486 14.16H73.3526L77.0166 26H74.6646ZM69.2886 21.424H73.3686L71.3526 14.352H71.3206L69.2886 21.424ZM86.1326 22.864L87.9086 26H85.4446L82.8686 21.2H80.6606V26H78.4526V14.16H83.0446C85.8286 14.16 87.4926 15.424 87.4926 17.536C87.4926 19.824 85.8606 21.168 83.0926 21.168V21.2C84.3886 21.2 85.5406 21.808 86.1326 22.864ZM80.6606 19.584H83.1566C84.4526 19.584 85.2046 18.88 85.2046 17.696C85.2046 16.56 84.4526 15.872 83.1566 15.872H80.6606V19.584ZM94.8096 19.2C97.3856 19.2 98.9056 20.416 98.9056 22.496C98.9056 24.704 97.3056 26 94.5856 26H89.5776V14.16H94.7136C96.8096 14.16 98.0416 15.12 98.0416 16.752C98.0416 18.256 96.7456 19.168 94.5696 19.168V19.2H94.8096ZM95.7536 17.52C95.7536 16.496 95.0976 15.872 93.9936 15.872H91.7856V19.168H93.9936C95.0976 19.168 95.7536 18.544 95.7536 17.52ZM94.6976 24.288C95.8976 24.288 96.6176 23.616 96.6176 22.496C96.6176 21.376 95.8976 20.704 94.6976 20.704H91.7856V24.288H94.6976ZM105.676 26.16C102.22 26.16 100.172 23.904 100.172 20.08C100.172 16.256 102.22 14 105.676 14C109.1 14 111.148 16.256 111.148 20.08C111.148 23.904 109.1 26.16 105.676 26.16ZM105.676 24.4C107.676 24.4 108.86 22.784 108.86 20.08C108.86 17.376 107.676 15.76 105.676 15.76C103.644 15.76 102.46 17.376 102.46 20.08C102.46 22.784 103.644 24.4 105.676 24.4ZM118.036 26.16C114.58 26.16 112.532 23.904 112.532 20.08C112.532 16.256 114.58 14 118.036 14C121.46 14 123.508 16.256 123.508 20.08C123.508 23.904 121.46 26.16 118.036 26.16ZM118.036 24.4C120.036 24.4 121.22 22.784 121.22 20.08C121.22 17.376 120.036 15.76 118.036 15.76C116.004 15.76 114.82 17.376 114.82 20.08C114.82 22.784 116.004 24.4 118.036 24.4ZM130.075 19.808L135.963 26H133.227L127.675 19.904H127.643V26H125.515V14.16H127.643V19.76H127.675L132.747 14.16H135.307L130.075 19.808Z" fill="black"/>
</svg>
