<svg width="14" height="14" viewBox="0 0 14 14" fill="none" xmlns="http://www.w3.org/2000/svg">
<path fill-rule="evenodd" clip-rule="evenodd" d="M7.54693 0.458104C11.1573 0.728412 14 3.65205 14 7.21886C14 10.964 10.866 14 7 14C3.13401 14 0 10.964 0 7.21886C0 5.95355 0.357724 4.76918 0.980558 3.75549L1.61738 4.50523C1.1804 5.317 0.933333 6.23998 0.933333 7.21886C0.933333 10.4646 3.64947 13.0958 7 13.0958C10.3505 13.0958 13.0667 10.4646 13.0667 7.21886C13.0667 4.12532 10.5994 1.59003 7.46707 1.35901V1.35762C7.20907 1.35732 7 1.15462 7 0.904618C7 0.654431 7.20937 0.451613 7.46764 0.451613C7.49468 0.451613 7.52115 0.453837 7.54693 0.458104ZM1.95627 1.63389C1.75397 1.47278 1.43689 1.49032 1.25998 1.66153C1.07773 1.8379 1.0686 2.14385 1.23144 2.33535L5.76862 7.67122C6.19266 8.1699 6.91414 8.2086 7.39324 7.74495L7.54619 7.59692C8.01942 7.13896 7.98714 6.43649 7.47003 6.02469L1.95627 1.63389ZM5.1343 1.80924C5.65003 1.80924 6.06809 1.40422 6.06809 0.904618C6.06809 0.405012 5.65003 0 5.1343 0C4.61857 0 4.20046 0.405012 4.20046 0.904618C4.20046 1.40422 4.61857 1.80924 5.1343 1.80924Z" fill="black"/>
</svg>
