<svg width="140" height="174" viewBox="0 0 140 174" fill="none" xmlns="http://www.w3.org/2000/svg">
<path d="M125.334 1.68652L138.242 1.68652V37.9516L125.334 37.9516L125.334 1.68652Z" fill="black"/>
<path d="M74.5333 52.2891L87.4414 52.2891L87.4414 88.5541H74.5333L74.5333 52.2891Z" fill="black"/>
<path d="M24.5665 103.735H37.4746L37.4746 140H24.5665L24.5665 103.735Z" fill="black"/>
<path d="M102.432 1.68652L114.924 1.68652L114.924 37.9516L102.432 37.9516L102.432 1.68652Z" fill="black"/>
<path d="M51.6333 52.2891L64.125 52.2891L64.125 88.5541H51.6333L51.6333 52.2891Z" fill="black"/>
<path d="M1.66454 103.735H14.1562L14.1562 140H1.66454L1.66454 103.735Z" fill="black"/>
<path fill-rule="evenodd" clip-rule="evenodd" d="M120.59 89.9138C131.31 89.9138 139.999 81.1137 139.999 70.2582C139.999 59.4027 131.31 50.6025 120.59 50.6025C109.871 50.6025 101.182 59.4027 101.182 70.2582C101.182 81.1137 109.871 89.9138 120.59 89.9138ZM120.592 78.7458C125.221 78.7458 128.973 74.9458 128.973 70.2582C128.973 65.5706 125.221 61.7705 120.592 61.7705C115.963 61.7705 112.211 65.5706 112.211 70.2582C112.211 74.9458 115.963 78.7458 120.592 78.7458Z" fill="black"/>
<path fill-rule="evenodd" clip-rule="evenodd" d="M19.4088 39.3113C30.1279 39.3113 38.8175 30.5111 38.8175 19.6556C38.8175 8.80013 30.1279 0 19.4088 0C8.6896 0 0 8.80013 0 19.6556C0 30.5111 8.6896 39.3113 19.4088 39.3113ZM19.4084 28.1433C24.0371 28.1433 27.7895 24.3432 27.7895 19.6556C27.7895 14.968 24.0371 11.168 19.4084 11.168C14.7797 11.168 11.0273 14.968 11.0273 19.6556C11.0273 24.3432 14.7797 28.1433 19.4084 28.1433Z" fill="black"/>
<path d="M102.434 116.807V103.735H138.243V116.807H102.434Z" fill="black"/>
<path d="M2 65.0723L2 52L37.8096 52V65.0723H2Z" fill="black"/>
<path d="M102.434 140V127.35H138.243V140H102.434Z" fill="black"/>
<path d="M1.66602 88.5544L1.66602 75.9038H37.4756V88.5544H1.66602Z" fill="black"/>
<path d="M13.464 150.24H17.064L8.664 168H5.088L8.352 160.944H5.256L0.216 150.24H4.032L8.736 160.656H8.784L13.464 150.24ZM22.155 165.432H31.515V168H18.843V150.24H31.251V152.808H22.155V157.608H30.411V160.176H22.155V165.432ZM45.9969 168L44.7729 163.704H37.1889L35.9649 168H32.6529L38.1729 150.24H44.0289L49.5249 168H45.9969ZM37.9329 161.136H44.0529L41.0289 150.528H40.9809L37.9329 161.136ZM63.1989 163.296L65.8629 168H62.1669L58.3029 160.8H54.9909V168H51.6789V150.24H58.5669C62.7429 150.24 65.2389 152.136 65.2389 155.304C65.2389 158.736 62.7909 160.752 58.6389 160.752V160.8C60.5829 160.8 62.3109 161.712 63.1989 163.296ZM54.9909 158.376H58.7349C60.6789 158.376 61.8069 157.32 61.8069 155.544C61.8069 153.84 60.6789 152.808 58.7349 152.808H54.9909V158.376ZM76.2144 157.8C80.0784 157.8 82.3584 159.624 82.3584 162.744C82.3584 166.056 79.9584 168 75.8784 168H68.3664V150.24H76.0704C79.2144 150.24 81.0624 151.68 81.0624 154.128C81.0624 156.384 79.1184 157.752 75.8544 157.752V157.8H76.2144ZM77.6304 155.28C77.6304 153.744 76.6464 152.808 74.9904 152.808H71.6784V157.752H74.9904C76.6464 157.752 77.6304 156.816 77.6304 155.28ZM76.0464 165.432C77.8464 165.432 78.9264 164.424 78.9264 162.744C78.9264 161.064 77.8464 160.056 76.0464 160.056H71.6784V165.432H76.0464ZM92.5146 168.24C87.3306 168.24 84.2586 164.856 84.2586 159.12C84.2586 153.384 87.3306 150 92.5146 150C97.6506 150 100.723 153.384 100.723 159.12C100.723 164.856 97.6506 168.24 92.5146 168.24ZM92.5146 165.6C95.5146 165.6 97.2906 163.176 97.2906 159.12C97.2906 155.064 95.5146 152.64 92.5146 152.64C89.4666 152.64 87.6906 155.064 87.6906 159.12C87.6906 163.176 89.4666 165.6 92.5146 165.6ZM111.054 168.24C105.87 168.24 102.798 164.856 102.798 159.12C102.798 153.384 105.87 150 111.054 150C116.19 150 119.262 153.384 119.262 159.12C119.262 164.856 116.19 168.24 111.054 168.24ZM111.054 165.6C114.054 165.6 115.83 163.176 115.83 159.12C115.83 155.064 114.054 152.64 111.054 152.64C108.006 152.64 106.23 155.064 106.23 159.12C106.23 163.176 108.006 165.6 111.054 165.6ZM129.113 158.712L137.945 168H133.841L125.513 158.856H125.465V168H122.273V150.24H125.465V158.64H125.513L133.121 150.24H136.961L129.113 158.712Z" fill="black"/>
</svg>
