<svg width="102" height="30" viewBox="0 0 102 30" fill="none" xmlns="http://www.w3.org/2000/svg">
<g id="Group 217">
<g id="h">
<path id="Vector 51" d="M26.857 0.361328L29.623 0.361328L29.623 8.13241H26.857L26.857 0.361328Z" fill="black"/>
<path id="Vector 53" d="M15.9713 11.2046H18.7373L18.7373 18.9757H15.9713L15.9713 11.2046Z" fill="black"/>
<path id="Vector 55" d="M5.26426 22.229H8.03027L8.03027 30.0001H5.26426L5.26426 22.229Z" fill="black"/>
<path id="Vector 52" d="M21.9492 0.361328L24.626 0.361328L24.626 8.13241H21.9492L21.9492 0.361328Z" fill="black"/>
<path id="Vector 54" d="M11.0644 11.2046H13.7412L13.7412 18.9757H11.0644L11.0644 11.2046Z" fill="black"/>
<path id="Vector 56" d="M0.356414 22.229H3.0332L3.0332 30.0001H0.356414L0.356414 22.229Z" fill="black"/>
<path id="Exclude" fill-rule="evenodd" clip-rule="evenodd" d="M25.8407 19.2671C28.1376 19.2671 29.9997 17.3814 29.9997 15.0552C29.9997 12.729 28.1376 10.8433 25.8407 10.8433C23.5437 10.8433 21.6816 12.729 21.6816 15.0552C21.6816 17.3814 23.5437 19.2671 25.8407 19.2671ZM25.8407 16.8744C26.8326 16.8744 27.6367 16.0601 27.6367 15.0556C27.6367 14.0511 26.8326 13.2368 25.8407 13.2368C24.8489 13.2368 24.0448 14.0511 24.0448 15.0556C24.0448 16.0601 24.8489 16.8744 25.8407 16.8744Z" fill="black"/>
<path id="Exclude_2" fill-rule="evenodd" clip-rule="evenodd" d="M4.15901 8.42385C6.45597 8.42385 8.31802 6.5381 8.31802 4.21192C8.31802 1.88574 6.45597 0 4.15901 0C1.86205 0 0 1.88574 0 4.21192C0 6.5381 1.86205 8.42385 4.15901 8.42385ZM4.15998 6.03112C5.15185 6.03112 5.95591 5.21683 5.95591 4.21234C5.95591 3.20785 5.15185 2.39355 4.15998 2.39355C3.16811 2.39355 2.36404 3.20785 2.36404 4.21234C2.36404 5.21683 3.16811 6.03112 4.15998 6.03112Z" fill="black"/>
<path id="Vector 49" d="M21.9502 25.0302V22.229H29.6237V25.0302H21.9502Z" fill="black"/>
<path id="Vector 57" d="M0.356445 14.0058L0.356445 11.2046L8.02991 11.2046V14.0058H0.356445Z" fill="black"/>
<path id="Vector 50" d="M21.9502 29.9999V27.2891H29.6237V29.9999H21.9502Z" fill="black"/>
<path id="Vector 58" d="M0.356445 18.9755L0.356445 16.2646H8.02991V18.9755H0.356445Z" fill="black"/>
</g>
<g id="YEARBOOK">
<path id="Vector" d="M97.5557 14.8561L101.972 19.5001H99.9197L95.7557 14.9281H95.7317V19.5001H94.1357V10.6201H95.7317V14.8201H95.7557L99.5597 10.6201H101.48L97.5557 14.8561Z" fill="black"/>
<path id="Vector_2" d="M88.5264 19.62C85.9344 19.62 84.3984 17.928 84.3984 15.06C84.3984 12.192 85.9344 10.5 88.5264 10.5C91.0944 10.5 92.6304 12.192 92.6304 15.06C92.6304 17.928 91.0944 19.62 88.5264 19.62ZM88.5264 18.3C90.0264 18.3 90.9144 17.088 90.9144 15.06C90.9144 13.032 90.0264 11.82 88.5264 11.82C87.0024 11.82 86.1144 13.032 86.1144 15.06C86.1144 17.088 87.0024 18.3 88.5264 18.3Z" fill="black"/>
<path id="Vector_3" d="M79.2569 19.62C76.6649 19.62 75.1289 17.928 75.1289 15.06C75.1289 12.192 76.6649 10.5 79.2569 10.5C81.8249 10.5 83.3609 12.192 83.3609 15.06C83.3609 17.928 81.8249 19.62 79.2569 19.62ZM79.2569 18.3C80.7569 18.3 81.6449 17.088 81.6449 15.06C81.6449 13.032 80.7569 11.82 79.2569 11.82C77.7329 11.82 76.8449 13.032 76.8449 15.06C76.8449 17.088 77.7329 18.3 79.2569 18.3Z" fill="black"/>
<path id="Vector_4" d="M71.1066 14.4001C73.0386 14.4001 74.1786 15.3121 74.1786 16.8721C74.1786 18.5281 72.9786 19.5001 70.9386 19.5001H67.1826V10.6201H71.0346C72.6066 10.6201 73.5306 11.3401 73.5306 12.5641C73.5306 13.6921 72.5586 14.3761 70.9266 14.3761V14.4001H71.1066ZM71.8146 13.1401C71.8146 12.3721 71.3226 11.9041 70.4946 11.9041H68.8386V14.3761H70.4946C71.3226 14.3761 71.8146 13.9081 71.8146 13.1401ZM71.0226 18.2161C71.9226 18.2161 72.4626 17.7121 72.4626 16.8721C72.4626 16.0321 71.9226 15.5281 71.0226 15.5281H68.8386V18.2161H71.0226Z" fill="black"/>
<path id="Vector_5" d="M64.5989 17.1481L65.9309 19.5001H64.0829L62.1509 15.9001H60.4949V19.5001H58.8389V10.6201H62.2829C64.3709 10.6201 65.6189 11.5681 65.6189 13.1521C65.6189 14.8681 64.3949 15.8761 62.3189 15.8761V15.9001C63.2909 15.9001 64.1549 16.3561 64.5989 17.1481ZM60.4949 14.6881H62.3669C63.3389 14.6881 63.9029 14.1601 63.9029 13.2721C63.9029 12.4201 63.3389 11.9041 62.3669 11.9041H60.4949V14.6881Z" fill="black"/>
<path id="Vector_6" d="M55.9982 19.5001L55.3862 17.3521H51.5942L50.9822 19.5001H49.3262L52.0862 10.6201H55.0142L57.7622 19.5001H55.9982ZM51.9662 16.0681H55.0262L53.5142 10.7641H53.4902L51.9662 16.0681Z" fill="black"/>
<path id="Vector_7" d="M44.0769 18.2161H48.7569V19.5001H42.4209V10.6201H48.6249V11.9041H44.0769V14.3041H48.2049V15.5881H44.0769V18.2161Z" fill="black"/>
<path id="Vector_8" d="M39.7314 10.6201H41.5314L37.3314 19.5001H35.5434L37.1754 15.9721H35.6274L33.1074 10.6201H35.0154L37.3674 15.8281H37.3914L39.7314 10.6201Z" fill="black"/>
</g>
</g>
</svg>
